:SAMPLES-PER-SECOND 24
:FULLY-SPECIFIED
:DEGREES
468
root  3.90645 36.6609 34.6926 10.6602 -57.165 -2.77667
RightUpLeg  -8.33589 -0.34539 -7.93617
RightLeg  34.8518 -7.1534 -5.54013
RightFoot  -28.6918 1.51178 11.1477
RightToes  -2.08645e-008 3.77894e-005 6.81332e-007
Spine  4.30051 2.61991 2.35531
Spine1  3.5354 3.29388 -3.04577
HEad  -38.7198 31.1181 -15.0599
LeftShoulder1  7.20028 -12.9927 -37.5574
LeftArm  -3.16813 0.79817 -24.4199
LeftForeArm  161.741 -71.655 -149.751
LeftHand  -0.640174 -1.40513 11.0986
RightShoulder  3.80563 6.56778 31.8967
RightArm  10.3073 -22.3359 28.9003
RightForeArm  144.437 77.1592 132.593
RightHand  -1.10911 8.70928 -9.481
LeftUpLeg  -30.3656 -5.24895 13.4087
LeftLeg  39.9586 2.33115 2.47549
LeftFoot  -17.1419 -0.612795 -14.0313
LeftToes  1.24767e-006 1.47042e-008 1.32732e-009
469
root  3.8117 37.5066 35.0039 11.381 -62.2328 -3.23474
RightUpLeg  -6.36863 4.94774 -8.54283
RightLeg  27.4686 -8.52669 -4.87438
RightFoot  -24.1189 1.13088 11.6341
RightToes  -2.08645e-008 3.77894e-005 6.81332e-007
Spine  2.79008 3.01815 2.49922
Spine1  3.71269 3.78885 -3.70856
HEad  -38.7615 34.3746 -15.9488
LeftShoulder1  7.34355 -13.1244 -38.058
LeftArm  -4.36954 13.2138 -25.1227
LeftForeArm  163.081 -70.5646 -151.651
LeftHand  -0.612297 -1.00468 11.2557
RightShoulder  3.92704 6.6595 32.7541
RightArm  12.0429 -27.4309 29.6581
RightForeArm  150.126 76.1702 137.3
RightHand  -0.937784 8.48816 -8.17732
LeftUpLeg  -26.0726 -2.4777 12.3642
LeftLeg  34.6676 4.42544 3.6355
LeftFoot  -14.222 -0.283481 -14.6297
LeftToes  1.24767e-006 1.47042e-008 1.32732e-009
470
root  3.48927 39.1779 35.5074 16.5966 -69.7828 -7.27496
RightUpLeg  -4.64722 6.18167 -9.11681
RightLeg  15.464 -3.60255 -2.29348
RightFoot  -12.0622 -0.0190479 9.99889
RightToes  -2.08645e-008 3.77894e-005 6.81332e-007
Spine  -0.46312 3.78414 5.74867
Spine1  3.00499 4.97315 -6.48611
HEad  -34.5703 40.5592 -15.1687
LeftShoulder1  6.91821 -12.6242 -36.8324
LeftArm  -4.1782 28.9833 -25.9891
LeftForeArm  164.096 -67.9937 -155.189
LeftHand  -0.553801 -1.05899 10.1122
RightShoulder  3.9866 6.74458 33.0146
RightArm  17.0253 -33.19 29.1751
RightForeArm  156.227 75.0228 141.792
RightHand  -0.615911 8.86318 -5.38882
LeftUpLeg  -19.6531 5.03287 11.6595
LeftLeg  24.1769 5.68393 3.12049
LeftFoot  -6.71194 0.63195 -14.5794
LeftToes  1.24767e-006 1.47042e-008 1.32732e-009
471
root  3.2323 40.8355 35.7255 26.0455 -76.7614 -15.2709
RightUpLeg  -5.16776 -3.50908 -8.17654
RightLeg  8.12635 6.07953 -2.44253
RightFoot  -0.935149 -0.760731 8.2045
RightToes  -2.08645e-008 3.77894e-005 6.81332e-007
Spine  -3.18051 4.75131 8.19442
Spine1  2.93128 6.09475 -8.33612
HEad  -33.1925 46.4044 -15.9612
LeftShoulder1  6.51081 -12.1935 -35.4533
LeftArm  -2.15092 42.0118 -24.9906
LeftForeArm  165.23 -64.9413 -158.507
LeftHand  -0.440794 -1.51992 7.57643
RightShoulder  4.10525 6.96278 33.3341
RightArm  22.5264 -36.9676 25.7016
RightForeArm  160.876 73.1872 146.766
RightHand  -0.624154 9.18332 -5.34835
LeftUpLeg  -16.051 13.3368 11.3303
LeftLeg  16.3922 7.30327 2.55392
LeftFoot  5.29265 2.19539 -15.155
LeftToes  1.24767e-006 1.47042e-008 1.32732e-009
472
root  3.3343 41.9627 35.6634 35.5552 -80.7409 -24.902
RightUpLeg  -5.89234 -4.93596 -7.42197
RightLeg  10.704 -4.07551 -2.48054
RightFoot  1.44266 -0.743871 6.6677
RightToes  -2.08645e-008 3.77894e-005 6.81332e-007
Spine  -2.08905 4.97923 9.79366
Spine1  3.15162 6.63495 -9.49017
HEad  -36.2733 48.8772 -19.0109
LeftShoulder1  6.47753 -12.3208 -34.9156
LeftArm  3.78401 48.6396 -19.8687
LeftForeArm  166.485 -62.912 -160.384
LeftHand  -0.36809 -2.17016 5.85377
RightShoulder  4.24678 7.18667 33.8351
RightArm  25.3583 -39.0259 21.7386
RightForeArm  161.343 71.8393 149.352
RightHand  -0.636713 8.7345 -5.59883
LeftUpLeg  -15.5216 17.3258 11.2491
LeftLeg  14.5033 10.6048 2.80249
LeftFoot  14.7618 3.36928 -14.895
LeftToes  1.24767e-006 1.47042e-008 1.32732e-009
473
root  3.72076 42.3738 35.6103 40.1845 -82.367 -31.0584
RightUpLeg  -6.47193 -10.6465 -6.70994
RightLeg  20.1935 -11.2185 -4.78901
RightFoot  0.875874 -0.452868 4.28161
RightToes  -2.08645e-008 3.77894e-005 6.81332e-007
Spine  2.38332 4.41884 12.0235
Spine1  2.61709 6.81801 -11.3604
HEad  -38.7399 48.1276 -21.2089
LeftShoulder1  6.42336 -12.475 -34.1899
LeftArm  12.5718 49.5462 -12.9694
LeftForeArm  168.182 -62.4894 -160.878
LeftHand  -0.311087 -2.81556 4.62879
RightShoulder  4.17626 7.15007 33.3107
RightArm  25.2102 -41.6262 19.7622
RightForeArm  159.386 71.8948 148.951
RightHand  -0.70591 8.12368 -6.42028
LeftUpLeg  -16.0359 17.0381 10.4507
LeftLeg  15.0477 8.7552 2.71641
LeftFoot  14.2777 3.14308 -14.1021
LeftToes  1.24767e-006 1.47042e-008 1.32732e-009
